<svg width="283" height="239" viewBox="0 0 283 239" fill="none" xmlns="http://www.w3.org/2000/svg">
<g clip-path="url(#clip0_127_220)">
<path d="M249.866 22.4497C237.028 8.80058 219.355 0.739859 200.645 0V71.7383L249.866 22.4497Z" fill="#3F3D56"/>
<path d="M249.866 31.382L200.645 80.6707H269.433C269.457 62.3377 262.453 44.6947 249.866 31.382Z" fill="#E4E4E4"/>
<path d="M269.506 85.8257C269.509 90.297 269.096 94.7588 268.272 99.1533C268.208 99.5014 268.141 99.8458 268.07 100.19C266.517 107.856 263.713 115.213 259.772 121.966C259.562 122.329 259.346 122.691 259.13 123.046V123.049C255.245 129.45 250.387 135.205 244.731 140.106C244.451 140.351 244.171 140.592 243.887 140.83C231.733 151.07 216.516 156.958 200.643 157.564V85.8257H269.506Z" fill="#F0F0F0"/>
<path d="M193.686 157.626C194.638 157.626 195.585 157.602 196.528 157.565V85.8239L144.426 137.997C157.725 150.623 175.36 157.651 193.686 157.626Z" fill="#CACACA"/>
<path d="M193.783 8.86835C154.182 8.86835 122.079 41.0154 122.079 80.6707H196.699V8.93235C195.731 8.89357 194.76 8.86835 193.783 8.86835Z" fill="#6C019C"/>
<path d="M176.677 85.8257L161.601 100.922L161.108 101.415L161.098 101.426L147.951 114.587L147.451 115.088L133.248 129.31L132.748 129.811V129.814L124.574 137.996C117.476 131.294 111.823 123.208 107.963 114.236C104.103 105.263 102.118 95.595 102.129 85.8257H176.677Z" fill="#6C019C"/>
<path d="M282.114 158.029H146.998C146.904 158.029 146.813 157.991 146.747 157.925C146.68 157.858 146.643 157.768 146.643 157.674C146.643 157.579 146.68 157.489 146.747 157.423C146.813 157.356 146.904 157.319 146.998 157.319H282.114C282.208 157.319 282.298 157.356 282.364 157.423C282.431 157.489 282.468 157.579 282.468 157.674C282.468 157.768 282.431 157.858 282.364 157.925C282.298 157.991 282.208 158.029 282.114 158.029Z" fill="#F0F0F0"/>
<path d="M282.291 203.307V68.0056C282.291 67.9114 282.329 67.8211 282.395 67.7545C282.461 67.6879 282.552 67.6505 282.646 67.6505C282.74 67.6505 282.83 67.6879 282.896 67.7545C282.963 67.8211 283 67.9114 283 68.0056V203.307C283 203.401 282.963 203.491 282.896 203.558C282.83 203.624 282.74 203.662 282.646 203.662C282.552 203.662 282.461 203.624 282.395 203.558C282.329 203.491 282.291 203.401 282.291 203.307Z" fill="#F0F0F0"/>
<path d="M262.077 176.14C265.21 176.14 267.751 173.596 267.751 170.458C267.751 167.32 265.21 164.776 262.077 164.776C258.943 164.776 256.402 167.32 256.402 170.458C256.402 173.596 258.943 176.14 262.077 176.14Z" fill="#F0F0F0"/>
<path d="M124.123 15.9804C127.257 15.9804 129.798 13.4366 129.798 10.2985C129.798 7.16047 127.257 4.61658 124.123 4.61658C120.99 4.61658 118.449 7.16047 118.449 10.2985C118.449 13.4366 120.99 15.9804 124.123 15.9804Z" fill="#F0F0F0"/>
<path d="M132.748 129.814C120.983 118.146 114.108 102.422 113.527 85.8512L114.945 85.8002C115.513 102.011 122.239 117.393 133.748 128.806L132.748 129.814Z" fill="black"/>
<path d="M147.966 114.601L146.938 115.574C139.1 107.287 133.568 97.0876 130.894 85.9926L131.582 85.8257H132.312C134.943 96.6101 140.333 106.522 147.952 114.587L147.966 114.601Z" fill="black"/>
<path d="M161.641 100.972L161.109 101.415L161.098 101.426L160.552 101.881C156.573 97.1147 153.293 91.8041 150.813 86.1098L151.462 85.8257H152.239C154.641 91.2706 157.793 96.352 161.602 100.922C161.613 100.939 161.626 100.956 161.641 100.972Z" fill="black"/>
<line y1="-1.07414" x2="86.9586" y2="-1.07414" transform="matrix(0.617364 0.786677 -0.78665 0.617399 196.411 83.1292)" stroke="black" stroke-width="2.14828"/>
<line y1="-1.07414" x2="86.9586" y2="-1.07414" transform="matrix(0.617364 0.786677 -0.78665 0.617399 144.458 17.3186)" stroke="black" stroke-width="2.14828"/>
</g>
<defs>
<clipPath id="clip0_127_220">
<rect width="297" height="238.996" fill="white" transform="translate(-14)"/>
</clipPath>
</defs>
</svg>
